<svg width="384" height="448" viewBox="0 0 384 448" fill="none" xmlns="http://www.w3.org/2000/svg">
<path d="M374.595 277.7L214.595 437.7C208.395 444 200.195 447.1 191.995 447.1C183.795 447.1 175.615 443.975 169.375 437.725L9.375 277.725C-3.125 265.225 -3.125 244.975 9.375 232.475C21.875 219.975 42.125 219.975 54.625 232.475L159.995 337.9V31.1C159.995 13.41 174.325 0 191.095 0C207.865 0 223.995 13.41 223.995 31.1V337.9L329.395 232.5C341.895 220 362.145 220 374.645 232.5C387.145 245 387.095 265.2 374.595 277.7Z" fill="white"/>
</svg>
