<svg width="33" height="32" viewBox="0 0 33 32" fill="none" xmlns="http://www.w3.org/2000/svg">
<circle cx="16.5" cy="16" r="15.5" stroke="white"/>
<path fill-rule="evenodd" clip-rule="evenodd" d="M13.0988 7.7995C13.9785 7.759 14.259 7.75 16.5 7.75C18.741 7.75 19.0215 7.75975 19.9005 7.7995C20.7795 7.83925 21.3795 7.9795 21.9045 8.18275C22.4542 8.3905 22.953 8.71525 23.3655 9.13525C23.7855 9.547 24.1095 10.045 24.3165 10.5955C24.5205 11.1205 24.66 11.7205 24.7005 12.598C24.741 13.4792 24.75 13.7597 24.75 16C24.75 18.241 24.7402 18.5215 24.7005 19.4012C24.6607 20.2787 24.5205 20.8787 24.3165 21.4037C24.1095 21.9543 23.785 22.4531 23.3655 22.8655C22.953 23.2855 22.4542 23.6095 21.9045 23.8165C21.3795 24.0205 20.7795 24.16 19.902 24.2005C19.0215 24.241 18.741 24.25 16.5 24.25C14.259 24.25 13.9785 24.2402 13.0988 24.2005C12.2213 24.1607 11.6213 24.0205 11.0963 23.8165C10.5457 23.6095 10.0469 23.2849 9.6345 22.8655C9.21478 22.4535 8.88999 21.9549 8.68275 21.4045C8.4795 20.8795 8.34 20.2795 8.2995 19.402C8.259 18.5207 8.25 18.2402 8.25 16C8.25 13.759 8.25975 13.4785 8.2995 12.5995C8.33925 11.7205 8.4795 11.1205 8.68275 10.5955C8.89029 10.0451 9.21534 9.54648 9.63525 9.1345C10.047 8.71488 10.5454 8.39008 11.0955 8.18275C11.6205 7.9795 12.2205 7.84 13.098 7.7995H13.0988ZM19.8337 9.2845C18.9637 9.24475 18.7028 9.2365 16.5 9.2365C14.2972 9.2365 14.0362 9.24475 13.1662 9.2845C12.3615 9.32125 11.925 9.4555 11.634 9.56875C11.2492 9.71875 10.974 9.8965 10.6853 10.1853C10.4115 10.4515 10.2009 10.7757 10.0687 11.134C9.9555 11.425 9.82125 11.8615 9.7845 12.6662C9.74475 13.5362 9.7365 13.7972 9.7365 16C9.7365 18.2028 9.74475 18.4637 9.7845 19.3337C9.82125 20.1385 9.9555 20.575 10.0687 20.866C10.2007 21.2238 10.4115 21.5485 10.6853 21.8148C10.9515 22.0885 11.2763 22.2993 11.634 22.4313C11.925 22.5445 12.3615 22.6788 13.1662 22.7155C14.0362 22.7552 14.2965 22.7635 16.5 22.7635C18.7035 22.7635 18.9637 22.7552 19.8337 22.7155C20.6385 22.6788 21.075 22.5445 21.366 22.4313C21.7508 22.2813 22.026 22.1035 22.3148 21.8148C22.5885 21.5485 22.7993 21.2238 22.9313 20.866C23.0445 20.575 23.1788 20.1385 23.2155 19.3337C23.2552 18.4637 23.2635 18.2028 23.2635 16C23.2635 13.7972 23.2552 13.5362 23.2155 12.6662C23.1788 11.8615 23.0445 11.425 22.9313 11.134C22.7813 10.7492 22.6035 10.474 22.3148 10.1853C22.0484 9.91155 21.7243 9.70091 21.366 9.56875C21.075 9.4555 20.6385 9.32125 19.8337 9.2845ZM15.4462 18.5433C16.0347 18.7882 16.69 18.8213 17.3002 18.6368C17.9104 18.4523 18.4375 18.0617 18.7917 17.5317C19.1459 17.0017 19.305 16.3652 19.242 15.7308C19.179 15.0965 18.8978 14.5037 18.4462 14.0538C18.1584 13.7661 17.8104 13.5459 17.4272 13.4089C17.0441 13.2719 16.6353 13.2215 16.2304 13.2615C15.8254 13.3014 15.4344 13.4306 15.0854 13.6398C14.7363 13.8491 14.4381 14.1331 14.212 14.4714C13.9859 14.8097 13.8376 15.194 13.7779 15.5965C13.7181 15.999 13.7484 16.4097 13.8664 16.7991C13.9844 17.1886 14.1874 17.547 14.4605 17.8485C14.7337 18.1501 15.0704 18.3874 15.4462 18.5433ZM13.5015 13.0015C13.8953 12.6077 14.3627 12.2954 14.8772 12.0823C15.3917 11.8692 15.9431 11.7595 16.5 11.7595C17.0569 11.7595 17.6083 11.8692 18.1228 12.0823C18.6373 12.2954 19.1047 12.6077 19.4985 13.0015C19.8923 13.3953 20.2046 13.8627 20.4177 14.3772C20.6308 14.8917 20.7405 15.4431 20.7405 16C20.7405 16.5569 20.6308 17.1083 20.4177 17.6228C20.2046 18.1373 19.8923 18.6047 19.4985 18.9985C18.7032 19.7938 17.6247 20.2405 16.5 20.2405C15.3753 20.2405 14.2968 19.7938 13.5015 18.9985C12.7062 18.2032 12.2595 17.1247 12.2595 16C12.2595 14.8753 12.7062 13.7968 13.5015 13.0015ZM21.681 12.391C21.7786 12.299 21.8567 12.1883 21.9107 12.0655C21.9648 11.9427 21.9936 11.8103 21.9956 11.6762C21.9975 11.5421 21.9725 11.4089 21.9221 11.2846C21.8717 11.1603 21.7968 11.0474 21.702 10.9525C21.6071 10.8577 21.4942 10.7828 21.3699 10.7324C21.2456 10.682 21.1124 10.657 20.9783 10.6589C20.8442 10.6609 20.7118 10.6897 20.589 10.7438C20.4662 10.7978 20.3555 10.8759 20.2635 10.9735C20.0845 11.1633 19.9865 11.4153 19.9903 11.6762C19.9941 11.9371 20.0994 12.1862 20.2839 12.3706C20.4683 12.5551 20.7174 12.6604 20.9783 12.6642C21.2392 12.668 21.4912 12.57 21.681 12.391Z" fill="white"/>
</svg>
