<svg width="32" height="32" viewBox="0 0 32 32" fill="none" xmlns="http://www.w3.org/2000/svg">
<circle cx="16" cy="16" r="15.5" stroke="white"/>
<g clip-path="url(#clip0_270_54)">
<path fill-rule="evenodd" clip-rule="evenodd" d="M20.5125 17.985C20.2642 17.8609 19.0467 17.2625 18.82 17.1792C18.5933 17.0967 18.4283 17.0559 18.2625 17.3042C18.0975 17.5509 17.6233 18.1092 17.4792 18.2742C17.3342 18.44 17.19 18.46 16.9425 18.3367C16.695 18.2117 15.8967 17.9509 14.9508 17.1075C14.215 16.4509 13.7175 15.64 13.5733 15.3917C13.4292 15.1442 13.5575 15.01 13.6817 14.8867C13.7933 14.7759 13.9292 14.5975 14.0533 14.4534C14.1775 14.3084 14.2183 14.205 14.3008 14.0392C14.3842 13.8742 14.3425 13.73 14.28 13.6059C14.2183 13.4817 13.7233 12.2625 13.5167 11.7667C13.3158 11.2842 13.1117 11.35 12.96 11.3417C12.815 11.335 12.65 11.3334 12.485 11.3334C12.32 11.3334 12.0517 11.395 11.825 11.6434C11.5975 11.8909 10.9583 12.49 10.9583 13.7092C10.9583 14.9275 11.845 16.105 11.9692 16.2709C12.0933 16.4359 13.715 18.9375 16.1992 20.01C16.7908 20.265 17.2517 20.4175 17.6108 20.5309C18.2042 20.72 18.7442 20.6934 19.1708 20.6292C19.6458 20.5584 20.6358 20.03 20.8425 19.4517C21.0483 18.8734 21.0483 18.3775 20.9867 18.2742C20.925 18.1709 20.76 18.1092 20.5117 17.985H20.5125ZM15.9942 24.1542H15.9908C14.5154 24.1545 13.067 23.7578 11.7975 23.0059L11.4975 22.8275L8.37917 23.6459L9.21167 20.6059L9.01583 20.2942C8.19095 18.9812 7.75441 17.4615 7.75667 15.9109C7.75833 11.3692 11.4533 7.6742 15.9975 7.6742C18.1975 7.6742 20.2658 8.53253 21.8208 10.0892C22.5878 10.853 23.1957 11.7613 23.6094 12.7616C24.0231 13.7619 24.2343 14.8343 24.2308 15.9167C24.2292 20.4584 20.5342 24.1542 15.9942 24.1542ZM23.0042 8.9067C22.086 7.98247 20.9935 7.24965 19.7901 6.7507C18.5866 6.25175 17.2961 5.9966 15.9933 6.00003C10.5317 6.00003 6.085 10.4459 6.08333 15.91C6.0808 17.649 6.53698 19.3579 7.40583 20.8642L6 26L11.2533 24.6217C12.7066 25.4135 14.3351 25.8283 15.99 25.8284H15.9942C21.4558 25.8284 25.9025 21.3825 25.9042 15.9175C25.9082 14.6153 25.654 13.3251 25.1562 12.1217C24.6584 10.9183 23.927 9.82559 23.0042 8.9067Z" fill="white"/>
</g>
<defs>
<clipPath id="clip0_270_54">
<rect width="20" height="20" fill="white" transform="translate(6 6)"/>
</clipPath>
</defs>
</svg>
